# xmcd
# 
# Track frame offsets:
#     150
#     25469
#     47581
#     69497
#     90171
#     108825
#     127763
#     148453
#     165541
#     185205
#     207571
#     228439
# 
# Disc length: 3296
# 
# Revision: 0
# Processed by: cddbd v1.5.2PL0 Copyright (c) Steve Scherf et al.
# Submitted via: fre:ac v1.0.31
# 
DISCID=a60cde0c
DTITLE=Various Artist - Blues Mix Vol. 12: Classic Soul Blues
DYEAR=2013
DGENRE=Blues
TTITLE0=Ms. Jody - The Rock
TTITLE1=Ms. Jody - Donnie Ray - I'm Gonna Keep My Love At Home
TTITLE2=Sonny Mack - Somebody's Been Fishin' In My Private Fishin' Hole
TTITLE3=Jaye Hammer - I'll Drink Your Bathwater, Baby
TTITLE4=Sir Ced - I Need You In My World
TTITLE5=O. B. Buchana - I Was Searching
TTITLE6=Rick Lawson - Lay Your Body Down
TTITLE7=Big Pappa G - Lovin' You
TTITLE8=Gerod Rayborn - Nosey Neighbors
TTITLE9=Barbara Carr - Let A Real Woman Try
TTITLE10=Bill Coday - Moans, Grunts And Groans
TTITLE11=Sonny Mack - Hurry
EXTD=
EXTT0=
EXTT1=
EXTT2=
EXTT3=
EXTT4=
EXTT5=
EXTT6=
EXTT7=
EXTT8=
EXTT9=
EXTT10=
EXTT11=
PLAYORDER=
